# xmcd
#
# Track frame offsets:
#  183
#  23188
#  49873
#  97760
#  133520
#  156605
#  179775
#
# Disc length: 2625 seconds
#
# Revision: 8
# Processed by: cddbd v1.5.1PL2 Copyright (c) Steve Scherf et al.
# Submitted via: Collectorz.com_Music_Collector 6.11
#
DISCID=5c0a3f07
DTITLE=Keith Jarrett - ECM Works
DYEAR=1985
DGENRE=Jazz
TTITLE0=Country
TTITLE1=Ritooria
TTITLE2=The Journey Home
TTITLE3=Staircase Part II
TTITLE4=String Quartet (2nd Movement)
TTITLE5=Invocations (Recognition)
TTITLE6=Nagoya: Part IIb (Encore)
EXTD=
EXTT0=
EXTT1=
EXTT2=
EXTT3=
EXTT4=
EXTT5=
EXTT6=
PLAYORDER=
